# xmcd CD database file
#
# Track frame offsets:
#	150
#	18882
#	30935
#	50160
#	64420
#	78552
#	91402
#	106460
#	117775
#	131920
#
# Disc length: 1963 seconds
#
# Revision: 5
# Processed by: cddbd v1.5.2PL0 Copyright (c) Steve Scherf et al.
# Submitted via: CDex 1.51
#
DISCID=8307a90a
DTITLE=George Jones And Tammy Wynette - One
DYEAR=1995
DGENRE=Country
TTITLE0=One
TTITLE1=It's An Old Love Thing
TTITLE2=What Ever Happened To Us
TTITLE3=Will You Travel Down This Road With Me
TTITLE4=(She's Just) An Old Love Turned Memory
TTITLE5=If God Met You
TTITLE6=Just Look What We've Started Again
TTITLE7=Solid As A Rock
TTITLE8=There're Playing Our Song
TTITLE9=All I Have To Offer You Is Me
EXTD=YEAR: 1995
EXTT0=
EXTT1=
EXTT2=
EXTT3=
EXTT4=
EXTT5=
EXTT6=
EXTT7=
EXTT8=
EXTT9=
PLAYORDER=
